STARTFONT 2.1
FONT -FontForge-Comic Sans MS-Book-R-Normal-SansMS-10-100-75-75-P-56-ISO10646-1
SIZE 10 75 75
FONTBOUNDINGBOX 11 12 -1 -3
COMMENT "Generated by fontforge, http://fontforge.sourceforge.net"
COMMENT "(c) 2018 Microsoft Corporation. All Rights Reserved."
STARTPROPERTIES 39
FOUNDRY "FontForge"
FAMILY_NAME "Comic Sans MS"
WEIGHT_NAME "Book"
SLANT "R"
SETWIDTH_NAME "Normal"
ADD_STYLE_NAME "SansMS"
PIXEL_SIZE 10
POINT_SIZE 100
RESOLUTION_X 75
RESOLUTION_Y 75
SPACING "P"
AVERAGE_WIDTH 56
CHARSET_REGISTRY "ISO10646"
CHARSET_ENCODING "1"
FONTNAME_REGISTRY ""
CHARSET_COLLECTIONS "ISO10646-1"
FONT_NAME "ComicSansMS"
FACE_NAME "Comic Sans MS"
COPYRIGHT "(c) 2018 Microsoft Corporation. All Rights Reserved."
FONT_VERSION "5.14"
FONT_ASCENT 8
FONT_DESCENT 2
UNDERLINE_POSITION -2
UNDERLINE_THICKNESS 1
X_HEIGHT 4
CAP_HEIGHT 7
RAW_ASCENT 799
RAW_DESCENT 200
NORM_SPACE 3
RELATIVE_WEIGHT 40
RELATIVE_SETWIDTH 50
SUPERSCRIPT_X 0
SUPERSCRIPT_Y 4
SUPERSCRIPT_SIZE 6
SUBSCRIPT_X 0
SUBSCRIPT_Y 1
SUBSCRIPT_SIZE 6
AVG_LOWERCASE_WIDTH 50
AVG_UPPERCASE_WIDTH 70
ENDPROPERTIES
CHARS 126
STARTCHAR space
ENCODING 32
SWIDTH 298 0
DWIDTH 3 0
BBX 1 1 0 0
BITMAP
00
ENDCHAR
STARTCHAR exclam
ENCODING 33
SWIDTH 237 0
DWIDTH 3 0
BBX 1 8 1 0
BITMAP
80
80
80
80
80
80
00
80
ENDCHAR
STARTCHAR quotedbl
ENCODING 34
SWIDTH 424 0
DWIDTH 5 0
BBX 3 3 1 5
BITMAP
A0
A0
A0
ENDCHAR
STARTCHAR numbersign
ENCODING 35
SWIDTH 842 0
DWIDTH 8 0
BBX 8 8 0 0
BITMAP
12
12
FF
24
24
FF
48
48
ENDCHAR
STARTCHAR dollar
ENCODING 36
SWIDTH 693 0
DWIDTH 7 0
BBX 5 11 1 -2
BITMAP
20
78
A0
A0
A0
70
28
28
F0
20
20
ENDCHAR
STARTCHAR percent
ENCODING 37
SWIDTH 820 0
DWIDTH 8 0
BBX 6 8 1 0
BITMAP
E8
B8
F0
10
20
3C
54
5C
ENDCHAR
STARTCHAR ampersand
ENCODING 38
SWIDTH 654 0
DWIDTH 7 0
BBX 6 8 0 0
BITMAP
18
28
30
70
D4
8C
88
74
ENDCHAR
STARTCHAR quotesingle
ENCODING 39
SWIDTH 388 0
DWIDTH 4 0
BBX 1 3 1 5
BITMAP
80
80
80
ENDCHAR
STARTCHAR parenleft
ENCODING 40
SWIDTH 366 0
DWIDTH 4 0
BBX 3 10 1 -2
BITMAP
20
40
80
80
80
80
80
80
40
20
ENDCHAR
STARTCHAR parenright
ENCODING 41
SWIDTH 366 0
DWIDTH 4 0
BBX 3 10 0 -2
BITMAP
80
40
20
20
20
20
20
20
40
80
ENDCHAR
STARTCHAR asterisk
ENCODING 42
SWIDTH 529 0
DWIDTH 6 0
BBX 5 4 0 4
BITMAP
20
F8
70
D0
ENDCHAR
STARTCHAR plus
ENCODING 43
SWIDTH 480 0
DWIDTH 5 0
BBX 5 5 0 1
BITMAP
20
20
F8
20
20
ENDCHAR
STARTCHAR comma
ENCODING 44
SWIDTH 276 0
DWIDTH 3 0
BBX 2 2 0 -1
BITMAP
40
80
ENDCHAR
STARTCHAR hyphen
ENCODING 45
SWIDTH 416 0
DWIDTH 4 0
BBX 3 1 0 2
BITMAP
E0
ENDCHAR
STARTCHAR period
ENCODING 46
SWIDTH 249 0
DWIDTH 3 0
BBX 1 1 1 0
BITMAP
80
ENDCHAR
STARTCHAR slash
ENCODING 47
SWIDTH 511 0
DWIDTH 5 0
BBX 4 8 0 0
BITMAP
10
10
20
20
40
40
80
80
ENDCHAR
STARTCHAR zero
ENCODING 48
SWIDTH 610 0
DWIDTH 6 0
BBX 4 8 1 0
BITMAP
60
90
90
90
90
90
90
60
ENDCHAR
STARTCHAR one
ENCODING 49
SWIDTH 450 0
DWIDTH 5 0
BBX 3 8 1 0
BITMAP
40
C0
40
40
40
40
40
E0
ENDCHAR
STARTCHAR two
ENCODING 50
SWIDTH 610 0
DWIDTH 6 0
BBX 4 8 1 0
BITMAP
60
90
10
10
60
80
80
F0
ENDCHAR
STARTCHAR three
ENCODING 51
SWIDTH 610 0
DWIDTH 6 0
BBX 5 8 0 0
BITMAP
70
88
08
30
08
08
88
70
ENDCHAR
STARTCHAR four
ENCODING 52
SWIDTH 610 0
DWIDTH 6 0
BBX 6 8 0 0
BITMAP
08
18
28
28
48
FC
08
08
ENDCHAR
STARTCHAR five
ENCODING 53
SWIDTH 610 0
DWIDTH 6 0
BBX 4 8 1 0
BITMAP
F0
80
E0
90
10
10
90
E0
ENDCHAR
STARTCHAR six
ENCODING 54
SWIDTH 610 0
DWIDTH 6 0
BBX 4 8 1 0
BITMAP
20
40
40
E0
90
90
90
60
ENDCHAR
STARTCHAR seven
ENCODING 55
SWIDTH 610 0
DWIDTH 6 0
BBX 6 8 0 0
BITMAP
FC
08
10
10
20
20
20
40
ENDCHAR
STARTCHAR eight
ENCODING 56
SWIDTH 610 0
DWIDTH 6 0
BBX 4 8 1 0
BITMAP
60
90
90
60
90
90
90
60
ENDCHAR
STARTCHAR nine
ENCODING 57
SWIDTH 610 0
DWIDTH 6 0
BBX 4 8 1 0
BITMAP
60
90
90
90
70
20
20
40
ENDCHAR
STARTCHAR colon
ENCODING 58
SWIDTH 298 0
DWIDTH 3 0
BBX 1 4 1 1
BITMAP
80
00
00
80
ENDCHAR
STARTCHAR semicolon
ENCODING 59
SWIDTH 298 0
DWIDTH 3 0
BBX 2 6 0 -1
BITMAP
40
00
00
00
40
80
ENDCHAR
STARTCHAR less
ENCODING 60
SWIDTH 381 0
DWIDTH 4 0
BBX 3 4 0 1
BITMAP
20
40
C0
20
ENDCHAR
STARTCHAR equal
ENCODING 61
SWIDTH 510 0
DWIDTH 5 0
BBX 3 4 1 1
BITMAP
E0
00
00
E0
ENDCHAR
STARTCHAR greater
ENCODING 62
SWIDTH 381 0
DWIDTH 4 0
BBX 3 5 0 1
BITMAP
80
40
20
40
80
ENDCHAR
STARTCHAR question
ENCODING 63
SWIDTH 523 0
DWIDTH 5 0
BBX 4 8 0 0
BITMAP
E0
10
10
20
20
40
00
40
ENDCHAR
STARTCHAR at
ENCODING 64
SWIDTH 931 0
DWIDTH 9 0
BBX 8 8 0 0
BITMAP
3C
42
99
A9
BE
80
42
3C
ENDCHAR
STARTCHAR A
ENCODING 65
SWIDTH 731 0
DWIDTH 7 0
BBX 6 8 0 0
BITMAP
10
10
28
28
78
48
84
84
ENDCHAR
STARTCHAR B
ENCODING 66
SWIDTH 630 0
DWIDTH 6 0
BBX 5 8 0 0
BITMAP
F0
88
88
88
F0
88
88
F0
ENDCHAR
STARTCHAR C
ENCODING 67
SWIDTH 602 0
DWIDTH 6 0
BBX 5 8 0 0
BITMAP
38
48
40
80
80
80
88
70
ENDCHAR
STARTCHAR D
ENCODING 68
SWIDTH 721 0
DWIDTH 7 0
BBX 6 8 0 0
BITMAP
C0
B0
88
84
84
84
88
F0
ENDCHAR
STARTCHAR E
ENCODING 69
SWIDTH 624 0
DWIDTH 6 0
BBX 5 8 0 0
BITMAP
F8
80
80
F8
80
80
80
F8
ENDCHAR
STARTCHAR F
ENCODING 70
SWIDTH 606 0
DWIDTH 6 0
BBX 5 8 1 0
BITMAP
F8
80
80
F0
80
80
80
80
ENDCHAR
STARTCHAR G
ENCODING 71
SWIDTH 679 0
DWIDTH 7 0
BBX 6 8 0 0
BITMAP
18
24
40
80
BC
84
88
70
ENDCHAR
STARTCHAR H
ENCODING 72
SWIDTH 768 0
DWIDTH 8 0
BBX 6 8 1 0
BITMAP
84
84
84
84
FC
84
84
84
ENDCHAR
STARTCHAR I
ENCODING 73
SWIDTH 546 0
DWIDTH 5 0
BBX 3 8 1 0
BITMAP
E0
40
40
40
40
40
40
E0
ENDCHAR
STARTCHAR J
ENCODING 74
SWIDTH 665 0
DWIDTH 7 0
BBX 6 8 1 0
BITMAP
7C
10
10
10
10
90
90
70
ENDCHAR
STARTCHAR K
ENCODING 75
SWIDTH 610 0
DWIDTH 6 0
BBX 5 8 0 0
BITMAP
88
90
A0
C0
C0
A0
90
88
ENDCHAR
STARTCHAR L
ENCODING 76
SWIDTH 550 0
DWIDTH 6 0
BBX 4 8 1 0
BITMAP
80
80
80
80
80
80
80
F0
ENDCHAR
STARTCHAR M
ENCODING 77
SWIDTH 882 0
DWIDTH 9 0
BBX 8 8 0 0
BITMAP
24
24
24
56
5A
5A
C9
89
ENDCHAR
STARTCHAR N
ENCODING 78
SWIDTH 796 0
DWIDTH 8 0
BBX 7 8 0 0
BITMAP
82
C2
A2
A2
92
8A
86
82
ENDCHAR
STARTCHAR O
ENCODING 79
SWIDTH 798 0
DWIDTH 8 0
BBX 7 8 0 0
BITMAP
3C
42
82
82
82
82
84
78
ENDCHAR
STARTCHAR P
ENCODING 80
SWIDTH 520 0
DWIDTH 5 0
BBX 4 8 0 0
BITMAP
E0
90
90
90
E0
80
80
80
ENDCHAR
STARTCHAR Q
ENCODING 81
SWIDTH 876 0
DWIDTH 9 0
BBX 8 10 0 -2
BITMAP
3C
42
81
81
81
89
47
3E
02
01
ENDCHAR
STARTCHAR R
ENCODING 82
SWIDTH 628 0
DWIDTH 6 0
BBX 5 8 0 0
BITMAP
E0
90
88
88
90
E0
90
88
ENDCHAR
STARTCHAR S
ENCODING 83
SWIDTH 693 0
DWIDTH 7 0
BBX 6 8 0 0
BITMAP
3C
40
40
38
04
04
84
78
ENDCHAR
STARTCHAR T
ENCODING 84
SWIDTH 679 0
DWIDTH 7 0
BBX 7 8 0 0
BITMAP
FE
10
10
10
10
10
10
10
ENDCHAR
STARTCHAR U
ENCODING 85
SWIDTH 736 0
DWIDTH 7 0
BBX 5 8 1 0
BITMAP
88
88
88
88
88
88
88
70
ENDCHAR
STARTCHAR V
ENCODING 86
SWIDTH 649 0
DWIDTH 7 0
BBX 5 8 1 0
BITMAP
88
88
88
50
50
50
50
20
ENDCHAR
STARTCHAR W
ENCODING 87
SWIDTH 1039 0
DWIDTH 11 0
BBX 10 8 0 0
BITMAP
8840
8880
5480
5480
5500
5500
2500
2200
ENDCHAR
STARTCHAR X
ENCODING 88
SWIDTH 723 0
DWIDTH 7 0
BBX 7 8 0 0
BITMAP
82
44
28
10
10
28
44
82
ENDCHAR
STARTCHAR Y
ENCODING 89
SWIDTH 635 0
DWIDTH 7 0
BBX 6 8 0 0
BITMAP
84
48
48
28
30
10
20
20
ENDCHAR
STARTCHAR Z
ENCODING 90
SWIDTH 693 0
DWIDTH 7 0
BBX 6 8 0 0
BITMAP
FC
08
10
20
20
40
80
FC
ENDCHAR
STARTCHAR bracketleft
ENCODING 91
SWIDTH 376 0
DWIDTH 4 0
BBX 3 10 1 -2
BITMAP
E0
80
80
80
80
80
80
80
80
E0
ENDCHAR
STARTCHAR backslash
ENCODING 92
SWIDTH 549 0
DWIDTH 5 0
BBX 4 8 0 -1
BITMAP
80
40
40
40
20
20
10
10
ENDCHAR
STARTCHAR bracketright
ENCODING 93
SWIDTH 376 0
DWIDTH 4 0
BBX 3 10 0 -2
BITMAP
E0
20
20
20
20
20
20
20
20
E0
ENDCHAR
STARTCHAR asciicircum
ENCODING 94
SWIDTH 581 0
DWIDTH 5 0
BBX 4 3 0 5
BITMAP
60
60
90
ENDCHAR
STARTCHAR underscore
ENCODING 95
SWIDTH 626 0
DWIDTH 6 0
BBX 6 1 0 -2
BITMAP
FC
ENDCHAR
STARTCHAR grave
ENCODING 96
SWIDTH 556 0
DWIDTH 6 0
BBX 2 2 0 6
BITMAP
80
40
ENDCHAR
STARTCHAR a
ENCODING 97
SWIDTH 511 0
DWIDTH 5 0
BBX 5 5 0 0
BITMAP
70
90
90
90
68
ENDCHAR
STARTCHAR b
ENCODING 98
SWIDTH 593 0
DWIDTH 5 0
BBX 4 8 0 0
BITMAP
80
80
80
E0
90
90
90
E0
ENDCHAR
STARTCHAR c
ENCODING 99
SWIDTH 513 0
DWIDTH 5 0
BBX 4 5 0 0
BITMAP
70
90
80
90
60
ENDCHAR
STARTCHAR d
ENCODING 100
SWIDTH 587 0
DWIDTH 5 0
BBX 4 8 0 0
BITMAP
10
10
10
70
90
90
90
70
ENDCHAR
STARTCHAR e
ENCODING 101
SWIDTH 547 0
DWIDTH 5 0
BBX 4 5 0 0
BITMAP
60
90
E0
90
60
ENDCHAR
STARTCHAR f
ENCODING 102
SWIDTH 508 0
DWIDTH 4 0
BBX 4 8 0 0
BITMAP
30
40
40
E0
40
40
40
40
ENDCHAR
STARTCHAR g
ENCODING 103
SWIDTH 530 0
DWIDTH 5 0
BBX 4 8 0 -3
BITMAP
70
90
90
90
70
10
10
E0
ENDCHAR
STARTCHAR h
ENCODING 104
SWIDTH 577 0
DWIDTH 5 0
BBX 4 8 0 0
BITMAP
80
80
80
A0
D0
90
90
90
ENDCHAR
STARTCHAR i
ENCODING 105
SWIDTH 280 0
DWIDTH 4 0
BBX 1 7 1 0
BITMAP
80
00
80
80
80
80
80
ENDCHAR
STARTCHAR j
ENCODING 106
SWIDTH 403 0
DWIDTH 4 0
BBX 3 10 -1 -3
BITMAP
20
00
20
20
20
20
20
20
A0
60
ENDCHAR
STARTCHAR k
ENCODING 107
SWIDTH 540 0
DWIDTH 5 0
BBX 4 8 0 0
BITMAP
80
80
80
90
A0
E0
A0
90
ENDCHAR
STARTCHAR l
ENCODING 108
SWIDTH 273 0
DWIDTH 3 0
BBX 1 8 1 0
BITMAP
80
80
80
80
80
80
80
80
ENDCHAR
STARTCHAR m
ENCODING 109
SWIDTH 776 0
DWIDTH 8 0
BBX 7 5 0 0
BITMAP
B6
DA
92
92
92
ENDCHAR
STARTCHAR n
ENCODING 110
SWIDTH 523 0
DWIDTH 5 0
BBX 4 5 0 0
BITMAP
A0
D0
90
90
90
ENDCHAR
STARTCHAR o
ENCODING 111
SWIDTH 525 0
DWIDTH 5 0
BBX 4 5 0 0
BITMAP
60
90
90
90
60
ENDCHAR
STARTCHAR p
ENCODING 112
SWIDTH 534 0
DWIDTH 5 0
BBX 4 8 0 -3
BITMAP
E0
90
90
90
E0
80
80
80
ENDCHAR
STARTCHAR q
ENCODING 113
SWIDTH 520 0
DWIDTH 5 0
BBX 4 8 0 -3
BITMAP
70
90
90
90
70
10
10
10
ENDCHAR
STARTCHAR r
ENCODING 114
SWIDTH 480 0
DWIDTH 5 0
BBX 3 5 1 0
BITMAP
E0
A0
80
80
80
ENDCHAR
STARTCHAR s
ENCODING 115
SWIDTH 486 0
DWIDTH 5 0
BBX 4 5 0 0
BITMAP
70
80
60
10
E0
ENDCHAR
STARTCHAR t
ENCODING 116
SWIDTH 471 0
DWIDTH 4 0
BBX 3 7 0 0
BITMAP
40
40
E0
40
40
40
40
ENDCHAR
STARTCHAR u
ENCODING 117
SWIDTH 520 0
DWIDTH 5 0
BBX 4 5 0 0
BITMAP
90
90
90
90
70
ENDCHAR
STARTCHAR v
ENCODING 118
SWIDTH 486 0
DWIDTH 5 0
BBX 4 5 0 0
BITMAP
90
90
90
60
60
ENDCHAR
STARTCHAR w
ENCODING 119
SWIDTH 684 0
DWIDTH 8 0
BBX 7 5 0 0
BITMAP
92
92
B4
B4
48
ENDCHAR
STARTCHAR x
ENCODING 120
SWIDTH 590 0
DWIDTH 6 0
BBX 5 5 0 0
BITMAP
88
50
20
50
88
ENDCHAR
STARTCHAR y
ENCODING 121
SWIDTH 520 0
DWIDTH 5 0
BBX 5 8 0 -3
BITMAP
88
50
50
20
20
20
40
40
ENDCHAR
STARTCHAR z
ENCODING 122
SWIDTH 538 0
DWIDTH 4 0
BBX 4 5 0 0
BITMAP
F0
20
20
40
F0
ENDCHAR
STARTCHAR braceleft
ENCODING 123
SWIDTH 366 0
DWIDTH 4 0
BBX 3 10 0 -2
BITMAP
60
40
40
40
40
C0
40
40
40
20
ENDCHAR
STARTCHAR bar
ENCODING 124
SWIDTH 421 0
DWIDTH 4 0
BBX 1 10 1 -2
BITMAP
80
80
80
80
80
80
80
80
80
80
ENDCHAR
STARTCHAR braceright
ENCODING 125
SWIDTH 366 0
DWIDTH 4 0
BBX 3 10 0 -2
BITMAP
C0
40
40
40
40
60
40
40
40
80
ENDCHAR
STARTCHAR asciitilde
ENCODING 126
SWIDTH 597 0
DWIDTH 6 0
BBX 5 3 0 2
BITMAP
48
A8
90
ENDCHAR
STARTCHAR uni00A0
ENCODING 160
SWIDTH 298 0
DWIDTH 3 0
BBX 1 1 0 0
BITMAP
00
ENDCHAR
STARTCHAR exclamdown
ENCODING 161
SWIDTH 237 0
DWIDTH 2 0
BBX 1 8 0 0
BITMAP
80
00
80
80
80
80
80
80
ENDCHAR
STARTCHAR cent
ENCODING 162
SWIDTH 623 0
DWIDTH 6 0
BBX 4 9 1 0
BITMAP
20
70
60
A0
A0
A0
A0
70
20
ENDCHAR
STARTCHAR sterling
ENCODING 163
SWIDTH 793 0
DWIDTH 8 0
BBX 7 8 0 0
BITMAP
3C
40
40
F8
40
40
42
FC
ENDCHAR
STARTCHAR currency
ENCODING 164
SWIDTH 611 0
DWIDTH 6 0
BBX 6 6 0 1
BITMAP
84
78
48
48
78
84
ENDCHAR
STARTCHAR yen
ENCODING 165
SWIDTH 635 0
DWIDTH 6 0
BBX 5 8 0 0
BITMAP
88
C8
50
D8
20
70
20
20
ENDCHAR
STARTCHAR brokenbar
ENCODING 166
SWIDTH 404 0
DWIDTH 4 0
BBX 1 8 1 0
BITMAP
80
80
80
00
80
80
80
80
ENDCHAR
STARTCHAR section
ENCODING 167
SWIDTH 634 0
DWIDTH 6 0
BBX 5 8 0 0
BITMAP
70
88
C0
B8
68
18
88
70
ENDCHAR
STARTCHAR dieresis
ENCODING 168
SWIDTH 556 0
DWIDTH 6 0
BBX 4 1 0 6
BITMAP
90
ENDCHAR
STARTCHAR copyright
ENCODING 169
SWIDTH 795 0
DWIDTH 8 0
BBX 7 8 0 0
BITMAP
3C
44
9A
A2
AA
BA
44
78
ENDCHAR
STARTCHAR ordfeminine
ENCODING 170
SWIDTH 526 0
DWIDTH 5 0
BBX 4 4 0 4
BITMAP
60
A0
B0
50
ENDCHAR
STARTCHAR guillemotleft
ENCODING 171
SWIDTH 577 0
DWIDTH 6 0
BBX 5 4 0 1
BITMAP
28
50
A0
78
ENDCHAR
STARTCHAR logicalnot
ENCODING 172
SWIDTH 480 0
DWIDTH 5 0
BBX 4 2 0 1
BITMAP
F0
10
ENDCHAR
STARTCHAR uni00AD
ENCODING 173
SWIDTH 416 0
DWIDTH 4 0
BBX 3 1 0 2
BITMAP
E0
ENDCHAR
STARTCHAR registered
ENCODING 174
SWIDTH 795 0
DWIDTH 8 0
BBX 7 8 0 0
BITMAP
3C
44
BA
AA
B2
AA
C4
78
ENDCHAR
STARTCHAR macron
ENCODING 175
SWIDTH 626 0
DWIDTH 6 0
BBX 6 1 0 8
BITMAP
FC
ENDCHAR
STARTCHAR degree
ENCODING 176
SWIDTH 409 0
DWIDTH 4 0
BBX 3 3 0 5
BITMAP
E0
A0
E0
ENDCHAR
STARTCHAR plusminus
ENCODING 177
SWIDTH 480 0
DWIDTH 5 0
BBX 5 7 0 -1
BITMAP
20
20
F8
20
20
00
F8
ENDCHAR
STARTCHAR uni00B2
ENCODING 178
SWIDTH 650 0
DWIDTH 7 0
BBX 3 5 2 4
BITMAP
E0
20
60
80
E0
ENDCHAR
STARTCHAR uni00B3
ENCODING 179
SWIDTH 650 0
DWIDTH 7 0
BBX 3 4 2 4
BITMAP
E0
20
60
E0
ENDCHAR
STARTCHAR acute
ENCODING 180
SWIDTH 556 0
DWIDTH 4 0
BBX 2 2 0 6
BITMAP
40
80
ENDCHAR
STARTCHAR mu
ENCODING 181
SWIDTH 520 0
DWIDTH 5 0
BBX 6 7 0 -2
BITMAP
24
44
48
48
78
80
80
ENDCHAR
STARTCHAR paragraph
ENCODING 182
SWIDTH 693 0
DWIDTH 7 0
BBX 6 9 1 -1
BITMAP
34
54
94
94
94
74
38
28
28
ENDCHAR
STARTCHAR periodcentered
ENCODING 183
SWIDTH 249 0
DWIDTH 2 0
BBX 1 1 1 3
BITMAP
80
ENDCHAR
STARTCHAR cedilla
ENCODING 184
SWIDTH 556 0
DWIDTH 6 0
BBX 2 3 1 -2
BITMAP
80
40
C0
ENDCHAR
STARTCHAR uni00B9
ENCODING 185
SWIDTH 650 0
DWIDTH 7 0
BBX 3 4 2 4
BITMAP
C0
40
40
E0
ENDCHAR
STARTCHAR ordmasculine
ENCODING 186
SWIDTH 449 0
DWIDTH 5 0
BBX 4 4 0 4
BITMAP
60
90
90
60
ENDCHAR
STARTCHAR guillemotright
ENCODING 187
SWIDTH 577 0
DWIDTH 6 0
BBX 5 4 0 1
BITMAP
A0
50
28
F0
ENDCHAR
STARTCHAR onequarter
ENCODING 188
SWIDTH 650 0
DWIDTH 7 0
BBX 5 11 1 -2
BITMAP
60
20
20
70
00
F8
20
60
A0
F0
20
ENDCHAR
STARTCHAR onehalf
ENCODING 189
SWIDTH 650 0
DWIDTH 7 0
BBX 5 11 1 -2
BITMAP
60
20
20
70
00
F8
00
70
50
20
70
ENDCHAR
STARTCHAR threequarters
ENCODING 190
SWIDTH 650 0
DWIDTH 7 0
BBX 5 11 1 -2
BITMAP
70
10
30
70
00
F8
20
60
A0
F0
20
ENDCHAR
ENDFONT
